<svg xmlns="http://www.w3.org/2000/svg" width="24" height="24" viewBox="0 0 24 24"><g transform="translate(-9437 -590)"><rect width="24" height="24" transform="translate(9437 590)" fill="none"/><g transform="translate(9437.724 595.276)"><path d="M45.444,991.784l-5.855-6.29a.446.446,0,0,0-.618-.02.457.457,0,0,0-.02.618l5.163,5.557H23.435a.434.434,0,0,0,0,.869H44.114l-5.163,5.557a.454.454,0,0,0,.02.618.441.441,0,0,0,.618-.02l5.855-6.29a.467.467,0,0,0,0-.6Z" transform="translate(-23 -985.36)" fill="#6b6b6b"/></g></g></svg>